<?xml version="1.0" standalone="no"?>
<!DOCTYPE svg PUBLIC "-//W3C//DTD SVG 20010904//EN"
 "http://www.w3.org/TR/2001/REC-SVG-20010904/DTD/svg10.dtd">
<svg version="1.0" xmlns="http://www.w3.org/2000/svg"
 width="691.000000pt" height="691.000000pt" viewBox="0 0 691.000000 691.000000"
 preserveAspectRatio="xMidYMid meet">
<metadata>
Created by potrace 1.14, written by Peter Selinger 2001-2017
</metadata>
<g transform="translate(0.000000,691.000000) scale(0.100000,-0.100000)"
fill="#000000" stroke="none">
<path d="M3360 6299 c-140 -12 -247 -64 -350 -168 -104 -106 -159 -235 -161
-376 -1 -170 50 -297 171 -415 74 -73 123 -102 225 -135 l70 -23 1 -324 c0
-177 -1 -328 -4 -335 -2 -6 -11 -11 -20 -11 -32 1 -97 -12 -162 -31 -137 -40
-216 -80 -365 -186 -18 -13 -25 -9 -86 48 -71 67 -144 135 -314 292 -60 55
-123 114 -140 130 -18 17 -86 80 -151 140 -176 163 -263 244 -319 296 -27 26
-78 73 -113 105 l-63 59 37 50 c68 93 105 207 105 320 0 39 -3 81 -6 95 -2 14
-7 39 -11 55 -26 124 -161 291 -284 352 -230 113 -478 74 -655 -102 -218 -217
-223 -557 -12 -782 105 -112 256 -175 412 -172 88 2 159 16 222 45 50 23 35
31 168 -94 34 -32 117 -109 185 -172 68 -63 156 -146 196 -183 40 -38 83 -77
96 -88 12 -11 46 -42 73 -68 28 -26 84 -78 125 -116 42 -39 132 -122 200 -186
69 -64 138 -128 154 -143 l29 -26 -35 -53 c-62 -91 -85 -132 -115 -203 -34
-78 -70 -209 -75 -269 l-4 -40 -332 0 -333 0 -27 80 c-36 101 -69 155 -146
230 -208 204 -550 207 -768 7 -150 -139 -212 -348 -162 -550 48 -198 209 -356
414 -408 61 -15 206 -16 265 -1 194 49 363 217 406 403 l11 50 329 -1 c205 0
332 -4 337 -10 6 -5 12 -31 15 -56 19 -163 119 -383 231 -507 l36 -40 -550
-550 c-303 -302 -557 -555 -565 -562 -12 -10 -21 -7 -46 15 -18 14 -57 39 -88
54 -210 105 -463 68 -634 -92 -187 -176 -233 -452 -111 -676 19 -35 41 -70 49
-78 8 -8 20 -22 27 -31 23 -31 112 -99 163 -125 82 -41 162 -60 254 -60 156 0
285 54 396 167 110 111 164 236 166 383 1 87 -7 131 -38 216 l-25 70 572 572
572 572 52 -34 c112 -74 290 -142 414 -159 l48 -6 0 -333 0 -334 -43 -11
c-101 -25 -211 -92 -286 -174 -48 -53 -112 -180 -127 -252 -17 -82 -8 -225 19
-303 120 -346 546 -488 846 -281 336 231 326 718 -17 941 -35 22 -95 50 -133
61 l-70 21 0 333 c-1 329 0 334 20 335 11 0 27 2 35 4 103 20 145 31 199 51
90 34 176 79 248 130 34 24 64 44 67 44 3 0 18 -12 33 -26 15 -14 75 -69 132
-122 57 -54 112 -104 121 -112 17 -15 210 -194 284 -263 67 -63 238 -221 257
-238 10 -8 71 -65 136 -125 65 -60 137 -127 161 -149 l44 -40 -32 -40 c-42
-52 -86 -148 -100 -217 -71 -352 193 -678 550 -678 178 0 334 79 456 231 30
37 83 153 90 197 3 20 8 40 11 45 10 17 2 166 -12 222 -37 143 -151 293 -273
358 -135 73 -315 89 -447 40 -110 -40 -96 -42 -166 25 -35 33 -80 74 -99 92
-19 18 -82 76 -140 130 -58 54 -121 112 -140 130 -19 18 -84 78 -145 135 -60
56 -126 117 -145 135 -19 18 -62 57 -95 89 -146 136 -282 262 -312 289 -18 16
-33 32 -33 35 0 4 20 34 45 68 96 131 172 332 184 485 1 8 101 11 336 10 l336
0 5 -26 c52 -249 286 -439 541 -441 300 -3 553 233 568 529 12 229 -106 431
-310 532 -238 119 -514 61 -683 -143 -48 -59 -78 -115 -107 -202 l-20 -60
-329 0 -330 0 -18 90 c-29 151 -89 293 -174 411 l-43 62 117 109 c64 61 131
122 147 137 17 15 80 74 140 131 61 57 126 118 146 136 88 82 296 277 325 304
18 17 81 75 140 130 59 55 120 111 134 125 l26 26 50 -22 c104 -46 248 -57
359 -29 205 52 374 226 415 427 12 59 15 164 5 208 -2 14 -8 39 -11 55 -15 74
-79 180 -149 250 -222 222 -568 222 -790 0 -141 -141 -196 -333 -151 -528 15
-65 62 -164 95 -202 10 -11 21 -25 24 -31 6 -10 -70 -83 -348 -339 -16 -15
-82 -76 -145 -135 -63 -59 -131 -122 -150 -140 -19 -18 -89 -82 -155 -144 -66
-61 -147 -136 -180 -166 -33 -31 -86 -81 -119 -110 -32 -30 -61 -54 -65 -53
-3 1 -44 27 -90 58 -124 83 -279 146 -395 161 -17 2 -42 6 -56 9 l-25 6 0 330
0 330 70 24 c103 35 162 71 235 144 104 105 155 227 159 376 4 164 -47 295
-158 406 -130 129 -275 183 -451 168z m-2074 -209 c80 -28 119 -57 176 -132
137 -179 69 -453 -136 -553 -145 -71 -321 -41 -432 73 -205 211 -99 567 188
626 75 15 132 12 204 -14z m2250 0 c283 -99 334 -480 88 -655 -200 -143 -483
-52 -565 180 -105 299 178 581 477 475z m2237 6 c46 -13 119 -56 153 -90 146
-147 139 -405 -16 -544 -72 -64 -185 -103 -279 -95 -292 25 -445 362 -271 594
98 131 253 182 413 135z m-2262 -1770 c170 -14 359 -107 493 -240 127 -126
203 -275 241 -471 7 -40 7 -180 0 -241 -47 -375 -371 -687 -750 -722 -433 -40
-815 239 -910 663 -17 75 -22 220 -11 290 60 384 356 676 731 721 28 4 51 7
52 8 3 3 57 0 154 -8z m-2228 -482 c146 -51 248 -194 249 -349 2 -303 -334
-484 -582 -314 -207 142 -219 443 -25 600 100 80 239 105 358 63z m4460 12
c37 -6 125 -50 159 -80 107 -96 152 -233 121 -371 -25 -108 -99 -202 -198
-250 -184 -90 -410 -14 -500 169 -32 65 -36 84 -37 168 -1 143 78 270 209 334
74 37 142 45 246 30z m-4462 -2261 c138 -46 244 -186 251 -331 6 -135 -45
-243 -155 -327 -75 -57 -191 -83 -287 -65 -209 41 -340 244 -293 451 49 216
273 342 484 272z m2251 -1 c50 -16 119 -62 156 -103 64 -72 103 -188 95 -280
-4 -49 -34 -139 -55 -169 -68 -96 -137 -143 -248 -169 -103 -24 -237 14 -321
90 -138 124 -162 340 -56 490 59 83 150 141 239 153 24 4 45 8 46 9 8 7 99 -7
144 -21z m2259 -5 c65 -25 95 -45 142 -94 122 -128 134 -333 27 -476 -150
-203 -448 -203 -600 0 -110 146 -95 351 35 484 104 105 262 140 396 86z"/>
</g>
</svg>
